<svg width="24" height="24" viewBox="0 0 24 24" fill="none" xmlns="http://www.w3.org/2000/svg">
<path d="M12 22C17.5228 22 22 17.5228 22 12C22 6.47715 17.5228 2 12 2C6.47715 2 2 6.47715 2 12C2 17.5228 6.47715 22 12 22Z" stroke="#006EDB" stroke-width="1.5" stroke-linecap="round"/>
<path d="M12.72 16.397C12.7093 16.4547 12.7043 16.5133 12.705 16.572C12.705 16.805 12.787 16.922 12.953 16.922C13.04 16.922 13.137 16.892 13.243 16.834C13.351 16.776 13.487 16.679 13.652 16.543L13.842 16.995C13.676 17.218 13.428 17.442 13.098 17.665C12.778 17.888 12.384 18 11.918 18C11.539 18 11.243 17.927 11.029 17.782C10.9275 17.7125 10.8451 17.6188 10.7892 17.5092C10.7333 17.3997 10.7057 17.2779 10.709 17.155L10.723 17.009C10.782 16.504 10.981 15.037 11.321 12.609L11.554 10.919L10.694 10.511L10.796 9.943L13.302 9.593L13.652 9.753L12.719 16.397H12.72ZM12.88 8.194C12.752 8.19485 12.6252 8.16947 12.5074 8.11942C12.3896 8.06938 12.2832 7.99572 12.195 7.903C12.0162 7.71391 11.917 7.46325 11.918 7.203C11.918 6.844 12.035 6.543 12.268 6.3C12.511 6.057 12.816 5.936 13.186 5.936C13.486 5.936 13.725 6.033 13.9 6.227C14.0727 6.40675 14.167 6.64776 14.162 6.897C14.162 7.267 14.05 7.577 13.827 7.83C13.603 8.073 13.287 8.194 12.88 8.194Z" fill="#006EDB"/>
</svg>
