<svg width="16" height="16" viewBox="0 0 16 16" fill="none" xmlns="http://www.w3.org/2000/svg">
<path d="M9.64999 3.18801L12.4787 6.01667M11.064 4.60267L5.87866 9.78801M12.95 2.71667C12.7643 2.53092 12.5438 2.38357 12.3011 2.28304C12.0584 2.18251 11.7983 2.13077 11.5357 2.13077C11.273 2.13077 11.0129 2.18251 10.7702 2.28304C10.5275 2.38357 10.307 2.53092 10.1213 2.71667L3.52132 9.31667L2.66666 13L6.34999 12.1453L12.95 5.54534C13.1357 5.35962 13.2831 5.13913 13.3836 4.89645C13.4842 4.65378 13.5359 4.39368 13.5359 4.13101C13.5359 3.86834 13.4842 3.60824 13.3836 3.36556C13.2831 3.12289 13.1357 2.9024 12.95 2.71667Z" stroke="#006EDB"/>
<path d="M6.66666 12L5.87866 9.788L3.66666 9" stroke="#006EDB"/>
</svg>
