<svg width="16" height="16" viewBox="0 0 16 16" fill="none" xmlns="http://www.w3.org/2000/svg">
<g clip-path="url(#clip0_1_32)">
<path d="M14.1667 8C14.1667 9.6355 13.517 11.204 12.3605 12.3605C11.204 13.517 9.6355 14.1667 8 14.1667V15.1667C11.958 15.1667 15.1667 11.958 15.1667 8H14.1667ZM8 14.1667C6.36449 14.1667 4.79598 13.517 3.6395 12.3605C2.48303 11.204 1.83333 9.6355 1.83333 8H0.833328C0.833328 11.958 4.042 15.1667 8 15.1667V14.1667ZM1.83333 8C1.83333 6.36449 2.48303 4.79598 3.6395 3.6395C4.79598 2.48303 6.36449 1.83333 8 1.83333V0.833328C4.042 0.833328 0.833328 4.042 0.833328 8H1.83333ZM8 1.83333C9.6355 1.83333 11.204 2.48303 12.3605 3.6395C13.517 4.79598 14.1667 6.36449 14.1667 8H15.1667C15.1667 4.042 11.958 0.833328 8 0.833328V1.83333ZM10.8333 8C10.8333 8.75144 10.5348 9.47211 10.0035 10.0035C9.47211 10.5348 8.75144 10.8333 8 10.8333V11.8333C9.01666 11.8333 9.99168 11.4295 10.7106 10.7106C11.4295 9.99168 11.8333 9.01666 11.8333 8H10.8333ZM8 10.8333C7.24855 10.8333 6.52788 10.5348 5.99653 10.0035C5.46517 9.47211 5.16666 8.75144 5.16666 8H4.16666C4.16666 9.01666 4.57053 9.99168 5.28942 10.7106C6.00831 11.4295 6.98333 11.8333 8 11.8333V10.8333ZM5.16666 8C5.16666 7.24855 5.46517 6.52788 5.99653 5.99653C6.52788 5.46517 7.24855 5.16666 8 5.16666V4.16666C6.98333 4.16666 6.00831 4.57053 5.28942 5.28942C4.57053 6.00831 4.16666 6.98333 4.16666 8H5.16666ZM8 5.16666C8.75144 5.16666 9.47211 5.46517 10.0035 5.99653C10.5348 6.52788 10.8333 7.24855 10.8333 8H11.8333C11.8333 6.98333 11.4295 6.00831 10.7106 5.28942C9.99168 4.57053 9.01666 4.16666 8 4.16666V5.16666ZM4.23333 2.47666L5.9 5.36333L6.76666 4.86333L5.1 1.97666L4.23333 2.47666ZM9.23333 11.1367L10.9 14.0233L11.7667 13.5233L10.1 10.6367L9.23333 11.1367ZM1.33333 8.5H4.66666V7.5H1.33333V8.5ZM11.3333 8.5H14.6667V7.5H11.3333V8.5ZM5.1 14.0233L6.76666 11.1367L5.9 10.6367L4.23333 13.5233L5.1 14.0233ZM10.1 5.36333L11.7667 2.47666L10.9 1.97666L9.23333 4.86333L10.1 5.36333Z" fill="#006EDB"/>
</g>
<defs>
<clipPath id="clip0_1_32">
<rect width="16" height="16" fill="white"/>
</clipPath>
</defs>
</svg>
