<svg width="24" height="24" viewBox="0 0 24 24" fill="none" xmlns="http://www.w3.org/2000/svg">
<path d="M9.5 2H3C2.44772 2 2 2.44772 2 3V9.5C2 10.0523 2.44772 10.5 3 10.5H9.5C10.0523 10.5 10.5 10.0523 10.5 9.5V3C10.5 2.44772 10.0523 2 9.5 2Z" stroke="#006EDB" stroke-width="1.5"/>
<path d="M13.5 17.5C13.5 17.2348 13.6054 16.9804 13.7929 16.7929C13.9804 16.6054 14.2348 16.5 14.5 16.5H21C21.2652 16.5 21.5196 16.6054 21.7071 16.7929C21.8946 16.9804 22 17.2348 22 17.5V21C22 21.2652 21.8946 21.5196 21.7071 21.7071C21.5196 21.8946 21.2652 22 21 22H14.5C14.2348 22 13.9804 21.8946 13.7929 21.7071C13.6054 21.5196 13.5 21.2652 13.5 21V17.5ZM13.5 3C13.5 2.73478 13.6054 2.48043 13.7929 2.29289C13.9804 2.10536 14.2348 2 14.5 2H21C21.2652 2 21.5196 2.10536 21.7071 2.29289C21.8946 2.48043 22 2.73478 22 3V12.5C22 12.7652 21.8946 13.0196 21.7071 13.2071C21.5196 13.3946 21.2652 13.5 21 13.5H14.5C14.2348 13.5 13.9804 13.3946 13.7929 13.2071C13.6054 13.0196 13.5 12.7652 13.5 12.5V3Z" stroke="#006EDB" stroke-width="1.5"/>
<path d="M9.5 13.5H3C2.44772 13.5 2 13.9477 2 14.5V21C2 21.5523 2.44772 22 3 22H9.5C10.0523 22 10.5 21.5523 10.5 21V14.5C10.5 13.9477 10.0523 13.5 9.5 13.5Z" stroke="#006EDB" stroke-width="1.5"/>
</svg>
