<svg xmlns:xlink="http://www.w3.org/1999/xlink" xmlns="http://www.w3.org/2000/svg" class="clippy__option-icon" x="0" y="0" width="24" height="24" viewBox="0 0 24 24" focusable="false" aria-hidden="true"><defs><symbol id="icon-info" fill="none"><circle cx="12" cy="12" r="10" stroke="#21292B" stroke-linecap="round" stroke-width="1.5px" fill="none"></circle><path fill="#21292B" d="M12.72 16.397a.906.906 0 0 0-.015.175c0 .233.082.35.248.35.087 0 .184-.03.29-.088.108-.058.244-.155.409-.291l.19.452c-.166.223-.414.447-.744.67-.32.223-.714.335-1.18.335-.379 0-.675-.073-.889-.218a.736.736 0 0 1-.32-.627l.014-.146c.059-.505.258-1.972.598-4.4l.233-1.69-.86-.408.102-.568 2.506-.35.35.16-.933 6.644zm.16-8.203a.937.937 0 0 1-.685-.291 1.013 1.013 0 0 1-.277-.7c0-.359.117-.66.35-.903.243-.243.548-.364.918-.364.3 0 .539.097.714.291a.94.94 0 0 1 .262.67c0 .37-.112.68-.335.933-.224.243-.54.364-.947.364z"></path></symbol></defs><use xlink:href="#icon-info" x="0" y="0" width="24" height="24" fill="none"></use></svg>