<svg xmlns:xlink="http://www.w3.org/1999/xlink" xmlns="http://www.w3.org/2000/svg" x="0" y="0" width="16" height="16" viewBox="0 0 24 24" focusable="false" aria-hidden="true"><defs><symbol id="icon-help" fill="none"><path fill="#21292B" d="M21.25 12A9.25 9.25 0 0 1 12 21.25v1.5c5.937 0 10.75-4.813 10.75-10.75h-1.5zM12 21.25A9.25 9.25 0 0 1 2.75 12h-1.5c0 5.937 4.813 10.75 10.75 10.75v-1.5zM2.75 12A9.25 9.25 0 0 1 12 2.75v-1.5C6.063 1.25 1.25 6.063 1.25 12h1.5zM12 2.75A9.25 9.25 0 0 1 21.25 12h1.5c0-5.937-4.813-10.75-10.75-10.75v1.5zM16.25 12A4.25 4.25 0 0 1 12 16.25v1.5A5.75 5.75 0 0 0 17.75 12h-1.5zM12 16.25A4.25 4.25 0 0 1 7.75 12h-1.5A5.75 5.75 0 0 0 12 17.75v-1.5zM7.75 12A4.25 4.25 0 0 1 12 7.75v-1.5A5.75 5.75 0 0 0 6.25 12h1.5zM12 7.75A4.25 4.25 0 0 1 16.25 12h1.5A5.75 5.75 0 0 0 12 6.25v1.5zM6.35 3.715l2.5 4.33 1.3-.75-2.5-4.33-1.3.75zm7.5 12.99l2.5 4.33 1.3-.75-2.5-4.33-1.3.75zM2 12.75h5v-1.5H2v1.5zm15 0h5v-1.5h-5v1.5zm-9.35 8.285l2.5-4.33-1.3-.75-2.5 4.33 1.3.75zm7.5-12.99l2.5-4.33-1.3-.75-2.5 4.33 1.3.75z"></path></symbol></defs><use xlink:href="#icon-help" x="0" y="0" width="24" height="24" fill="none"></use></svg>