<svg xmlns:xlink="http://www.w3.org/1999/xlink" xmlns="http://www.w3.org/2000/svg" x="0" y="0" width="16" height="16" viewBox="0 0 24 24" focusable="false" aria-hidden="true"><defs><symbol id="icon-globe" fill="none"><path fill="#21292B" d="M21.25 12A9.25 9.25 0 0 1 12 21.25v1.5c5.937 0 10.75-4.813 10.75-10.75h-1.5zM12 21.25A9.25 9.25 0 0 1 2.75 12h-1.5c0 5.937 4.813 10.75 10.75 10.75v-1.5zM2.75 12A9.25 9.25 0 0 1 12 2.75v-1.5C6.063 1.25 1.25 6.063 1.25 12h1.5zM12 2.75A9.25 9.25 0 0 1 21.25 12h1.5c0-5.937-4.813-10.75-10.75-10.75v1.5zm-2.58-.83C8.487 3.057 6.685 6.29 6.685 12h1.5c0-5.395 1.701-8.283 2.395-9.131l-1.162-.95zM6.685 12c0 5.721 1.84 8.917 2.719 10.062l1.19-.912c-.683-.891-2.41-3.767-2.41-9.15h-1.5zm6.719-9.15c.693.904 2.513 3.782 2.513 9.15h1.5c0-5.736-1.954-8.93-2.823-10.062l-1.19.912zM15.918 12c0 5.368-1.82 8.246-2.513 9.15l1.19.912c.869-1.133 2.823-4.326 2.823-10.062h-1.5zM2 12.75h20v-1.5H2v1.5zm1-5h18v-1.5H3v1.5zm0 10h18v-1.5H3v1.5z"></path></symbol></defs><use xlink:href="#icon-globe" x="0" y="0" width="24" height="24" fill="none"></use></svg>