<svg xmlns:xlink="http://www.w3.org/1999/xlink" xmlns="http://www.w3.org/2000/svg" class="save-as__icon" x="0" y="0" width="24" height="24" viewBox="0 0 24 24" focusable="false" aria-hidden="true"><defs><symbol id="icon-file-pdf" fill="none"><path stroke="#21292B" stroke-width="1.5px" d="M21 8h-5a1 1 0 0 1-1-1V2M3 21V3c0-.552.403-1 .9-1H16l5 5v14c0 .552-.403 1-.9 1H3.9c-.497 0-.9-.448-.9-1z" fill="none"></path><path stroke="#21292B" d="M17.967 14.416c.83-3.353-14.113 1.112-11.704 3.353 2.41 2.24 7.229-12.573 3.787-11.735-3.443.838 7.087 11.735 7.917 8.382z" fill="none"></path></symbol></defs><use xlink:href="#icon-file-pdf" x="0" y="0" width="24" height="24" fill="none"></use></svg>