<svg xmlns:xlink="http://www.w3.org/1999/xlink" xmlns="http://www.w3.org/2000/svg" class="now-hero__next-hour-icon" x="0" y="0" width="8" height="8" viewBox="0 0 24 24" focusable="false" aria-hidden="true"><defs><symbol id="icon-umbrella-open" fill="none"><path fill="#21292B" fill-rule="evenodd" d="M14.83 12.727h-.004l-.014-.004-.055-.013a17.897 17.897 0 0 0-.943-.2c-.595-.112-1.291-.214-1.814-.214-.523 0-1.219.102-1.814.214a21.317 21.317 0 0 0-.943.2l-.055.013-.014.004H9.17l-.182.046-.182-.045-.004-.001-.013-.004-.056-.013-.213-.05a21.328 21.328 0 0 0-.73-.15c-.595-.112-1.29-.214-1.814-.214-.909 0-2.286.303-2.72.405-.113.027-.29.06-.496.038-.793-.088-1.593-.744-1.505-1.715C1.752 5.542 6.374 1.25 12 1.25c5.625 0 10.248 4.292 10.744 9.774.088.971-.712 1.627-1.505 1.715a1.455 1.455 0 0 1-.497-.038c-.433-.102-1.81-.405-2.72-.405-.522 0-1.218.102-1.813.214a21.342 21.342 0 0 0-.943.2l-.056.013-.013.004h-.003l-.183.046-.182-.046z" clip-rule="evenodd"></path><path fill="#21292B" fill-rule="evenodd" d="M11.25 19.672V12h1.5v7.672a1.25 1.25 0 0 0 2.134.883l.586-.585a.75.75 0 1 1 1.06 1.06l-.586.586a2.75 2.75 0 0 1-4.694-1.944z" clip-rule="evenodd"></path></symbol></defs><use xlink:href="#icon-umbrella-open" x="0" y="0" width="24" height="24" fill="none"></use></svg>