<svg xmlns:xlink="http://www.w3.org/1999/xlink" xmlns="http://www.w3.org/2000/svg" class="celestial-events__icon" x="0" y="0" width="24" height="24" viewBox="0 0 24 24" focusable="false" aria-hidden="true"><defs><symbol id="icon-sunset" fill="none"><path fill="#21292B" fill-rule="evenodd" d="M21 21.75H3v-1.5h18v1.5zM11.25 6.223V3h1.5v3.223L14.584 5l.832 1.248L12 8.525 8.584 6.248 9.416 5l1.834 1.223zM17.197 19a6 6 0 1 0-10.395 0h10.395z" clip-rule="evenodd"></path><path fill="#21292B" d="M3.692 8.752l2.474 2.475 1.061-1.06L4.752 7.69l-1.06 1.061zm15.556-1.061l-2.475 2.475 1.06 1.061 2.476-2.475-1.061-1.06zM4.5 15.25H1v1.5h3.5v-1.5zm18.5 0h-3.5v1.5H23v-1.5z"></path></symbol></defs><use xlink:href="#icon-sunset" x="0" y="0" width="24" height="24" fill="none"></use></svg>