<svg xmlns:xlink="http://www.w3.org/1999/xlink" xmlns="http://www.w3.org/2000/svg" class="save-as__icon" x="0" y="0" width="24" height="24" viewBox="0 0 24 24" focusable="false" aria-hidden="true"><defs><symbol id="icon-widget" fill="none"><rect width="8.5" height="8.5" x="2" y="2" stroke="#21292B" stroke-width="1.5px" rx="1" fill="none"></rect><path stroke="#21292B" stroke-width="1.5px" d="M13.5 17.5a1 1 0 0 1 1-1H21a1 1 0 0 1 1 1V21a1 1 0 0 1-1 1h-6.5a1 1 0 0 1-1-1v-3.5zm0-14.5a1 1 0 0 1 1-1H21a1 1 0 0 1 1 1v9.5a1 1 0 0 1-1 1h-6.5a1 1 0 0 1-1-1V3z" fill="none"></path><rect width="8.5" height="8.5" x="2" y="13.5" stroke="#21292B" stroke-width="1.5px" rx="1" fill="none"></rect></symbol></defs><use xlink:href="#icon-widget" x="0" y="0" width="24" height="24" fill="none"></use></svg>