<svg xmlns:xlink="http://www.w3.org/1999/xlink" xmlns="http://www.w3.org/2000/svg" class="page-header__location-star page-header__location-star--empty" x="0" y="0" width="30" height="30" viewBox="0 0 24 24" focusable="false" aria-hidden="true"><defs><symbol id="icon-star" fill="none"><path stroke="#fff" stroke-linecap="round" stroke-width="1.5px" d="M14.922 8.818l-2.646-6.175a.3.3 0 0 0-.552 0L9.078 8.818A.3.3 0 0 1 8.802 9H2.83a.3.3 0 0 0-.192.53l5.185 4.322a.3.3 0 0 1 .08.357l-2.987 6.402a.3.3 0 0 0 .426.384l6.505-3.902a.3.3 0 0 1 .308 0l6.505 3.902a.3.3 0 0 0 .426-.384l-2.987-6.402a.3.3 0 0 1 .08-.357l5.185-4.322a.3.3 0 0 0-.192-.53h-5.973a.3.3 0 0 1-.276-.182z" fill="#fff"></path></symbol></defs><use xlink:href="#icon-star" x="0" y="0" width="24" height="24" fill="#fff"></use></svg>