<svg width="18" height="18" viewBox="0 0 16 16" fill="none" xmlns="http://www.w3.org/2000/svg">
<g clip-path="url(#clip0_1_35)">
<path d="M14.1667 8C14.1667 9.6355 13.517 11.204 12.3605 12.3605C11.204 13.517 9.6355 14.1667 8 14.1667V15.1667C11.958 15.1667 15.1667 11.958 15.1667 8H14.1667ZM8 14.1667C6.36449 14.1667 4.79598 13.517 3.6395 12.3605C2.48303 11.204 1.83333 9.6355 1.83333 8H0.833328C0.833328 11.958 4.042 15.1667 8 15.1667V14.1667ZM1.83333 8C1.83333 6.36449 2.48303 4.79598 3.6395 3.6395C4.79598 2.48303 6.36449 1.83333 8 1.83333V0.833328C4.042 0.833328 0.833328 4.042 0.833328 8H1.83333ZM8 1.83333C9.6355 1.83333 11.204 2.48303 12.3605 3.6395C13.517 4.79598 14.1667 6.36449 14.1667 8H15.1667C15.1667 4.042 11.958 0.833328 8 0.833328V1.83333ZM6.28 1.27999C5.658 2.03799 4.45666 4.19333 4.45666 8H5.45666C5.45666 4.40333 6.59066 2.47799 7.05333 1.91266L6.27866 1.27933L6.28 1.27999ZM4.45666 8C4.45666 11.814 5.68333 13.9447 6.26933 14.708L7.06266 14.1C6.60733 13.506 5.456 11.5887 5.456 8H4.45666ZM8.936 1.89999C9.398 2.50266 10.6113 4.42133 10.6113 8H11.6113C11.6113 4.17599 10.3087 2.04666 9.72933 1.29199L8.936 1.89999ZM10.612 8C10.612 11.5787 9.39866 13.4973 8.93666 14.1L9.73 14.708C10.3093 13.9527 11.6113 11.824 11.6113 8H10.612ZM1.33333 8.5H14.6667V7.5H1.33333V8.5ZM1.99999 5.16666H14V4.16666H1.99999V5.16666ZM1.99999 11.8333H14V10.8333H1.99999V11.8333Z" fill="#006EDB"/>
</g>
<defs>
<clipPath id="clip0_1_35">
<rect width="16" height="16" fill="white"/>
</clipPath>
</defs>
</svg>
