<svg width="32" height="32" viewBox="0 0 32 32" fill="none" xmlns="http://www.w3.org/2000/svg">
<path d="M27 3V29C27 29.2652 26.8946 29.5196 26.7071 29.7071C26.5196 29.8946 26.2652 30 26 30H6C5.73478 30 5.48043 29.8946 5.29289 29.7071C5.10536 29.5196 5 29.2652 5 29V27H7V28H25V4H7V7H5V3C5 2.73478 5.10536 2.48043 5.29289 2.29289C5.48043 2.10536 5.73478 2 6 2H26C26.2652 2 26.5196 2.10536 26.7071 2.29289C26.8946 2.48043 27 2.73478 27 3ZM12.29 20.29L13.71 21.71L18.71 16.71C18.8037 16.617 18.8781 16.5064 18.9289 16.3846C18.9797 16.2627 19.0058 16.132 19.0058 16C19.0058 15.868 18.9797 15.7373 18.9289 15.6154C18.8781 15.4936 18.8037 15.383 18.71 15.29L13.71 10.29L12.29 11.71L15.59 15H5V17H15.59L12.29 20.29Z" fill="#006EDB"/>
</svg>
