<svg xmlns="http://www.w3.org/2000/svg" width="89" height="24" fill="none" viewBox="0 0 89 24"><path fill="currentColor" fill-rule="evenodd" d="M.13 7.34c0 4.048 3.341 7.342 7.447 7.342s7.446-3.294 7.446-7.341C15.023 3.294 11.683 0 7.577 0S.13 3.294.13 7.34zm1.122 0c0-3.439 2.838-6.237 6.327-6.237 3.49 0 6.328 2.799 6.328 6.237 0 3.439-2.839 6.237-6.328 6.237-3.49 0-6.327-2.797-6.327-6.237zm7.857 13.79L12.022 24l3.277-3.23-.733-.722-2.545 2.509-2.912-2.87-2.915 2.87-2.914-2.87L0 22.918l.732.721 2.548-2.51L6.194 24l2.915-2.87zm15.749-6.567H23.74v-1.035h1.117v1.035zm0 5.741H23.74v-4.995h1.117v4.995zm1.62 0h1.03v-3.04c0-.754.441-1.104 1.08-1.104.64 0 1.081.35 1.081 1.105v3.039H30.7v-3.058c0-1.54-1.139-2.073-2.014-2.073-.529 0-1.03.281-1.177.571v-.435h-1.032v4.995zm5.526-1.597h1.061c.079.494.56.716 1.11.716.451 0 .835-.116.835-.523 0-.339-.304-.445-.639-.523l-.963-.242c-.667-.165-1.286-.532-1.286-1.492 0-.986.805-1.47 1.837-1.47 1.09 0 1.846.484 1.944 1.597h-1.08c-.079-.436-.461-.62-.934-.62-.314 0-.727.116-.727.514 0 .3.295.397.57.465l.933.232c.924.233 1.385.62 1.385 1.568-.01.988-.786 1.472-1.886 1.472-1.168 0-2.101-.552-2.16-1.694zm7.27.619c-.404 0-.472-.106-.472-.474v-2.586h1.248v-.957h-1.248v-1.133H37.77v1.133h-.716v.957h.716v2.847c0 .784.363 1.191 1.208 1.191h1.072v-.978h-.777zm3.322-4.763h-1.117v-1.035h1.117v1.035zm0 5.741h-1.117v-4.995h1.117v4.995zm3.528-.978c-.403 0-.471-.106-.471-.474v-2.586h1.246v-.957h-1.246v-1.133H44.62v1.133h-.718v.957h.718v2.847c0 .784.363 1.191 1.208 1.191h1.07v-.978h-.775zm3.21-1.016c0 .755.442 1.103 1.051 1.103.61 0 1.052-.349 1.052-1.103v-3.001h1.03v4.995h-1.03v-.474c-.148.29-.649.571-1.179.571-.873 0-1.954-.6-1.954-2.071v-3.021h1.03v3.001zm6.579 1.016c-.403 0-.473-.106-.473-.474v-2.586h1.248v-.957H55.44v-1.133h-1.03v1.133h-.717v.957h.717v2.847c0 .784.363 1.191 1.208 1.191h1.07v-.978h-.775zm3.496-.474c0 .368.07.474.472.474h.776v.978h-1.072c-.844 0-1.207-.407-1.207-1.191v-2.847h-.717v-.957h.717v-1.133h1.03v1.133h1.249v.957h-1.248v2.586zM29.565 3.54h-1.052l-1.836 3.746L24.84 3.54h-1.05v6.777h1.04V5.612l1.415 2.884h.864l1.414-2.884v4.705h1.042V3.54zm4.71 5.188h1.052c-.176 1.327-1.267 1.686-2.082 1.686-.884 0-2.112-.427-2.112-2.072V7.257c0-1.645 1.227-2.072 2.112-2.072.883 0 2.111.427 2.111 2.072v.9h-3.192v.165c0 .755.443 1.113 1.081 1.113.51 0 .894-.231 1.03-.707zm-2.11-1.481v.01h2.16v-.01c-.01-.726-.452-1.084-1.08-1.084-.639 0-1.08.359-1.08 1.084zm6.538 2.091c-.402 0-.472-.107-.472-.474V6.279h1.247v-.958h-1.247V4.189H37.2V5.32h-.717v.958h.717v2.846c0 .784.363 1.19 1.208 1.19h1.07v-.977h-.775zm5.22-.61h1.052c-.176 1.327-1.267 1.686-2.082 1.686-.884 0-2.112-.427-2.112-2.072V7.257c0-1.645 1.227-2.072 2.112-2.072s2.112.427 2.112 2.072v.9h-3.193v.165c0 .755.442 1.113 1.08 1.113.51 0 .895-.231 1.032-.707zm-2.111-1.481v.01h2.16v-.01c-.009-.726-.45-1.084-1.079-1.084-.64 0-1.081.359-1.081 1.084zm6.725-2.062c-.884 0-2.112.427-2.112 2.072v1.085c0 1.645 1.228 2.072 2.112 2.072.885 0 2.112-.427 2.112-2.072V7.257c0-1.645-1.228-2.072-2.112-2.072zm0 .978c.639 0 1.081.358 1.081 1.113v1.046c0 .755-.441 1.113-1.08 1.113-.637 0-1.08-.358-1.08-1.113V7.276c0-.755.443-1.113 1.08-1.113zm5.675.058c-.638 0-1.08.348-1.08 1.102v2.993h-1.03V5.32h1.03v.484c.146-.291.649-.572 1.178-.572h.393v.988h-.491zm3.663-1.036c-.885 0-2.112.427-2.112 2.072v1.085c0 1.645 1.228 2.072 2.112 2.072.883 0 2.112-.427 2.112-2.072V7.257c0-1.645-1.229-2.072-2.112-2.072zm-.001.978c.637 0 1.08.358 1.08 1.113v1.046c0 .755-.443 1.113-1.08 1.113-.638 0-1.08-.358-1.08-1.113V7.276c0-.755.441-1.113 1.08-1.113zm4.633 2.7c0 .368.07.475.472.475h.158v.978h-.451c-.846 0-1.209-.407-1.209-1.19V3.54h1.03v5.324zm4.016-3.678c-.885 0-2.112.427-2.112 2.072v1.085c0 1.645 1.228 2.072 2.112 2.072.884 0 2.112-.427 2.112-2.072V7.257c0-1.645-1.228-2.072-2.112-2.072zm0 .978c.639 0 1.081.358 1.081 1.113v1.046c0 .755-.442 1.113-1.08 1.113-.638 0-1.08-.358-1.08-1.113V7.276c0-.755.442-1.113 1.08-1.113zm10.482-1.588h-1.116V3.54h1.116v1.035zm0 5.74h-1.116V5.322h1.116v4.995zm2.369-1.596h-1.06c.06 1.142.99 1.695 2.16 1.695 1.1 0 1.875-.485 1.886-1.472 0-.95-.463-1.336-1.386-1.569l-.932-.233c-.275-.067-.57-.163-.57-.464 0-.397.413-.513.726-.513.473 0 .855.183.934.618h1.08c-.098-1.113-.855-1.597-1.945-1.597-1.03 0-1.836.484-1.836 1.472 0 .96.618 1.327 1.287 1.491l.961.243c.334.078.64.185.64.523 0 .406-.383.523-.834.523-.55 0-1.033-.223-1.111-.717zm5.352-1.365L86.62 5.32h1.248l-1.827 1.955 2.102 3.04h-1.198l-1.591-2.304-.628.677v1.627h-1.032V3.539h1.032v3.815zM73.17 9.55v.553c0 .754-.443 1.113-1.08 1.113-.54 0-.943-.26-1.05-.803h-1.043c.139 1.403 1.257 1.78 2.093 1.78.883 0 2.112-.426 2.112-2.072v-4.8H73.17v.436c-.147-.291-.648-.572-1.179-.572-.873 0-2.012.532-2.012 2.072v.794c0 1.54 1.139 2.071 2.012 2.071.53 0 1.032-.28 1.178-.57zm-1.08-.416c-.638 0-1.08-.348-1.08-1.103v-.756c0-.754.44-1.103 1.08-1.103.637 0 1.08.348 1.08 1.103v.756c0 .755-.443 1.103-1.08 1.103z" clip-rule="evenodd"/></svg>