<svg width="40" height="40" viewBox="0 0 40 40" fill="none" xmlns="http://www.w3.org/2000/svg">
<g clip-path="url(#clip0_1_2)">
<path fill-rule="evenodd" clip-rule="evenodd" d="M20 0C8.955 0 0 8.95333 0 20C0 31.045 8.955 40 20 40C31.0467 40 40 31.045 40 20C40 8.95333 31.0467 0 20 0Z" fill="white"/>
<path fill-rule="evenodd" clip-rule="evenodd" d="M33.6417 26.5233C33.6417 26.5233 32.8533 26.7433 32.265 26.1133C31.5733 25.3733 30.48 23.8833 30.48 23.8833C31.4332 23.6231 32.3027 23.1201 33.0033 22.4233C34.11 21.3217 34.7133 19.7617 34.7067 18.0833C34.7233 16.3383 33.9567 14.77 32.7467 13.7867C31.5417 12.7917 29.9883 12.33 28.3717 12.3283H25.5233C24.2387 12.331 23.0075 12.8425 22.0991 13.7508C21.1908 14.6592 20.6793 15.8904 20.6767 17.175V29.135H23.9067V25.7417C23.9123 25.3148 24.0845 24.907 24.3865 24.6053C24.6885 24.3036 25.0965 24.1318 25.5233 24.1267H26.81L30.285 28.3833L30.5283 28.6833C30.7917 28.935 31.1367 29.1 31.5217 29.1333V29.135H31.5917C31.6359 29.1413 31.6808 29.1413 31.725 29.135H33.6367L33.6417 26.5233ZM14.5983 29.635C15.9267 28.8933 18.565 27.4183 18.58 23.44V12.8483H15.385L15.3817 18.07C15.3217 20.0167 13.4983 20.6467 12.0467 20.6667C10.3883 20.6433 8.64 19.7233 8.64 17.195V12.8483H5.48833V17.195C5.48833 19.1683 6.17 20.8533 7.46167 22.07C8.63 23.17 10.2317 23.7883 11.9817 23.8183H12.1117C13.2867 23.7967 15.0133 23.03 15.3483 22.3533V23.7917C15.3483 25.6983 12.9233 26.9417 12.27 27.2683L12.3167 27.325C12.3111 27.3277 12.3055 27.3305 12.3 27.3333L12.27 27.3483L14.3 29.8033L14.6 29.635H14.5983ZM28.37 15.56C29.3783 15.56 30.1867 15.855 30.6867 16.2733C31.1783 16.7017 31.46 17.2033 31.4767 18.0817C31.4717 19.0267 31.17 19.6817 30.72 20.1383C30.2617 20.59 29.6083 20.8917 28.6633 20.895H25.5217C25.035 20.8967 24.5667 21.0667 24.1233 21.2283L23.9067 21.3067V17.175C23.9123 16.7481 24.0845 16.3404 24.3865 16.0387C24.6885 15.7369 25.0965 15.5652 25.5233 15.56H28.37ZM20 0C8.955 0 0 8.95333 0 20C0 31.045 8.955 40 20 40C31.0467 40 40 31.045 40 20C40 8.95333 31.0467 0 20 0Z" fill="#00B8F1"/>
</g>
<defs>
<clipPath id="clip0_1_2">
<rect width="40" height="40" fill="white"/>
</clipPath>
</defs>
</svg>
