<svg width="12" height="14" viewBox="0 0 12 14" fill="none" xmlns="http://www.w3.org/2000/svg">
<path d="M2.00001 3.66667V12.3333C2.00001 12.5101 2.07024 12.6797 2.19527 12.8047C2.32029 12.9298 2.48986 13 2.66667 13H9.33334C9.51015 13 9.67972 12.9298 9.80474 12.8047C9.92977 12.6797 10 12.5101 10 12.3333V3.66667M0.666672 3H11.3333M8.66667 2.66667L8.16734 1.41933C8.11792 1.29563 8.03257 1.18956 7.92229 1.11482C7.81202 1.04008 7.68189 1.00008 7.54867 1H4.45134C4.31812 1.00008 4.18799 1.04008 4.07772 1.11482C3.96745 1.18956 3.88209 1.29563 3.83267 1.41933L3.33334 2.66667M7.33334 6.33333V9.66667M4.66667 6.33333V9.66667" stroke="#C60000" stroke-linecap="square"/>
</svg>
