<svg width="22" height="19" viewBox="0 0 22 19" fill="none" xmlns="http://www.w3.org/2000/svg">
<path fill-rule="evenodd" clip-rule="evenodd" d="M20 18.75H2V17.25H20V18.75ZM10.25 3.223V0H11.75V3.223L13.584 2L14.416 3.248L11 5.525L7.584 3.248L8.416 2L10.25 3.223ZM16.197 16C16.7231 15.0878 16.9999 14.0533 16.9995 13.0003C16.9991 11.9473 16.7217 10.913 16.195 10.0012C15.6683 9.08937 14.9109 8.33224 13.9989 7.80585C13.0869 7.27945 12.0525 7.00234 10.9995 7.00234C9.94651 7.00234 8.91206 7.27945 8.00008 7.80585C7.08811 8.33224 6.33072 9.08937 5.80402 10.0012C5.27732 10.913 4.99986 11.9473 4.9995 13.0003C4.99915 14.0533 5.27591 15.0878 5.802 16H16.197Z" fill="#FF9D00"/>
<path d="M2.692 5.752L5.166 8.227L6.227 7.167L3.752 4.69L2.692 5.752ZM18.248 4.691L15.773 7.166L16.833 8.227L19.309 5.752L18.248 4.691ZM3.5 12.25H0V13.75H3.5V12.25ZM22 12.25H18.5V13.75H22V12.25Z" fill="#FF9D00"/>
</svg>
